<?xml version="1.0" encoding="UTF-8"?>
<svg id="Layer_2" data-name="Layer 2" xmlns="http://www.w3.org/2000/svg" viewBox="0 0 172.61 216.39">
  <defs>
    <style>
      .cls-1 {
        fill: #000;
      }

      .cls-1, .cls-2 {
        stroke-width: 0px;
      }

      .cls-2 {
        fill: #fff;
      }
    </style>
  </defs>
  <g id="Layer_1-2" data-name="Layer 1">
    <g>
      <path class="cls-1" d="M171.95,98.81c-2.22,20.47-11.58,37.85-24.05,53.79-12.89,16.45-27.93,30.87-42.83,45.41-6.2,6.05-12.39,12.1-18.83,18.38-5.72-5.46-11.27-10.74-16.79-16.04-14.32-13.71-28.79-27.29-41.49-42.57-12.24-14.72-21.96-30.78-25.88-49.8C-5.61,70.61,8.34,35.68,37.91,15.07c30.98-21.6,73.51-19.95,102.94,4.76,24.49,20.55,34.54,47.27,31.1,78.99Z"/>
      <g>
        <path class="cls-2" d="M66.2,158.34c-.65-.13-1.31-.21-1.93-.4-2.61-.78-4.42-2.39-5.15-5.08-.34-1.24-.19-2.47.05-3.71.67-3.58,1.32-7.16,1.97-10.74,1-5.47,2.01-10.94,3.01-16.41,1.07-5.85,2.15-11.69,3.19-17.55.27-1.52.4-3.07.61-4.6.39-2.97.79-5.95,1.18-8.92.28-2.15.48-4.31.22-6.48-.13-1.03-.36-2.03-1.11-2.81-.59-.61-1.3-1.06-2.09-1.34-1.32-.48-2.66-.91-4.01-1.33-5.03-1.58-10.06-3.15-15.1-4.72-1.88-.59-3.8-1.1-5.65-1.78-1.94-.72-3.87-1.53-5.54-2.81-2.11-1.62-3.17-3.7-2.87-6.4.26-2.35,1.1-4.43,2.89-6.04,1.56-1.39,3.38-1.81,5.4-1.23,2.52.71,5.02,1.47,7.54,2.14,4.57,1.22,9.18,2.27,13.81,3.2,3.81.76,7.64,1.43,11.49,1.94,4,.53,8,.89,12.04.9,2.67,0,5.34-.16,8-.42,4.03-.39,8.03-1,12.01-1.72,4.35-.79,8.67-1.69,12.96-2.78,3.95-1.01,7.89-2.07,11.81-3.16,1.66-.46,3.24-.48,4.77.39,1.14.66,1.99,1.61,2.64,2.74.73,1.28,1.17,2.65,1.29,4.12,0,.06.04.12.05.18v1.15c-.02.07-.05.14-.06.21-.16,1.67-.93,3.02-2.13,4.15-1.2,1.13-2.61,1.93-4.12,2.54-1.72.69-3.47,1.31-5.22,1.93-6.53,2.29-13.06,4.56-19.58,6.85-1.34.47-2.64,1.05-3.82,1.86-.75.52-1.3,1.16-1.46,2.09-.06.34-.12.67-.16,1.01-.24,2.02-.03,4.03.22,6.04.34,2.69.71,5.38,1.07,8.07.22,1.68.37,3.38.67,5.05.92,5.13,1.9,10.24,2.86,15.36,1.07,5.73,2.14,11.46,3.21,17.19.78,4.19,1.57,8.37,2.36,12.56.29,1.53.24,3.02-.42,4.45-1,2.16-2.74,3.41-4.99,4.01-.55.15-1.12.22-1.68.33h-1.92c-.06-.02-.12-.05-.18-.06-2.44-.26-4.25-1.48-5.5-3.57-.85-1.42-1.32-2.98-1.64-4.59-.98-4.9-1.93-9.8-2.95-14.69-1.23-5.86-2.56-11.7-4.23-17.45-.58-2.01-1.19-4.02-2.05-5.93-.31-.67-.69-1.33-1.13-1.92-.39-.53-.8-.51-1.26-.03-.6.62-.94,1.4-1.27,2.17-.88,2.07-1.52,4.22-2.11,6.38-1.3,4.7-2.38,9.46-3.35,14.24-1.1,5.43-2.14,10.87-3.2,16.31-.34,1.77-.74,3.51-1.6,5.11-.99,1.86-2.42,3.19-4.49,3.74-.46.12-.93.19-1.4.28h-1.92Z"/>
        <path class="cls-2" d="M100.68,41.41c-.09,8.11-6.59,14.38-14.42,14.33-8.07-.05-14.47-6.58-14.33-14.58.14-8.05,6.8-14.49,15.01-14.14,7.6.32,13.72,6.55,13.75,14.38Z"/>
      </g>
    </g>
  </g>
</svg>