<?xml version="1.0" encoding="UTF-8"?>
<svg id="Layer_2" data-name="Layer 2" xmlns="http://www.w3.org/2000/svg" viewBox="0 0 172.61 216.39">
  <defs>
    <style>
      .cls-1 {
        fill: #000;
      }

      .cls-1, .cls-2 {
        stroke-width: 0px;
      }

      .cls-2 {
        fill: #fff;
      }
    </style>
  </defs>
  <g id="Layer_1-2" data-name="Layer 1">
    <g>
      <path class="cls-1" d="M171.95,98.81c-2.22,20.47-11.58,37.85-24.05,53.79-12.89,16.45-27.93,30.87-42.83,45.41-6.2,6.05-12.39,12.1-18.83,18.38-5.72-5.46-11.27-10.74-16.79-16.04-14.32-13.71-28.79-27.29-41.49-42.57-12.24-14.72-21.96-30.78-25.88-49.8C-5.61,70.61,8.34,35.68,37.91,15.07c30.98-21.6,73.51-19.95,102.94,4.76,24.49,20.55,34.54,47.27,31.1,78.99Z"/>
      <g>
        <path class="cls-2" d="M22.66,107.99c.64,0,1.29.08,1.91-.02.93-.15,1.89-.32,2.76-.66,1.66-.66,3.29-1.41,4.9-2.18,2.39-1.15,4.94-1.03,7.47-.94,1.23.04,2.44.36,3.6.87,1.68.75,3.4,1.4,5.11,2.06.87.33,1.77.58,2.66.87,1.32.44,2.68.62,4.06.51.7-.06,1.39-.31,2.09-.48.67-.17,1.34-.31,1.99-.53,1.28-.46,2.54-.99,3.82-1.45,1.57-.56,3.11-1.24,4.73-1.58,1.55-.33,3.17-.34,4.74.08,1.08.29,2.18.49,3.23.84,1.31.44,2.57,1,3.86,1.5.58.22,1.16.42,1.75.59.73.21,1.5.3,2.21.56,1.64.62,3.31.36,4.95.2.93-.09,1.83-.55,2.73-.86,1.14-.39,2.27-.81,3.4-1.21.79-.28,1.57-.59,2.36-.84.88-.28,1.76-.59,2.66-.72,1.25-.18,2.51-.26,3.77-.27,1.38-.01,2.69.36,3.95.98.88.44,1.83.75,2.75,1.11,1.13.44,2.25.91,3.4,1.3.54.18,1.13.23,1.71.3,1.15.14,2.29.3,3.44.37.69.04,1.41,0,2.09-.14.66-.14,1.29-.46,1.92-.71,1.37-.54,2.74-1.1,4.11-1.64,1.11-.43,2.22-.9,3.36-1.22.93-.26,1.91-.4,2.88-.48.98-.08,1.98,0,2.97-.02,1.51-.04,2.88.47,4.23,1.04,1.73.74,3.44,1.54,5.19,2.22,1.42.55,2.92.74,4.49.52v13.21c-2.25.11-4.44.1-6.52-.98-1.52-.79-3.11-1.44-4.7-2.1-.67-.28-1.42-.35-2.1-.6-1.44-.53-2.92-.21-4.38-.21-.75,0-1.5.43-2.24.69-.71.25-1.41.52-2.11.8-.96.39-1.92.8-2.88,1.2-1.66.68-3.37,1.19-5.18,1.22-1.34.03-2.69.04-4.03,0-1.6-.05-3.09-.55-4.54-1.24-1.09-.52-2.24-.94-3.36-1.4-1.09-.44-2.17-.95-3.3-1.26-.89-.24-1.86-.37-2.77-.29-1.13.11-2.25.42-3.33.78-1.16.39-2.26.97-3.41,1.39-1.67.61-3.36,1.15-5.05,1.7-.24.08-.52.04-.79.04-1.67,0-3.35,0-5.02,0-1.85,0-3.55-.54-5.23-1.27-1.14-.5-2.31-.93-3.48-1.36-1.06-.38-2.12-.81-3.22-1.03-1.06-.22-2.18-.38-3.24-.25-1.03.12-2.04.59-3.02.98-1.63.66-3.23,1.43-4.87,2.08-1.9.76-3.86,1.26-5.94,1.12-.55-.04-1.1-.03-1.65,0-2.1.1-4.08-.41-6-1.18-1.52-.61-2.99-1.34-4.52-1.94-.72-.28-1.54-.32-2.26-.6-1.23-.48-2.49-.24-3.72-.21-.91.02-1.84.31-2.7.63-1.63.6-3.25,1.24-4.8,2.01-1.16.58-2.4.84-3.61,1.21-.23.07-.48.07-.72.08-.86,0-1.72,0-2.57,0v-13.21Z"/>
        <path class="cls-2" d="M22.66,128.06c.19-.03.39-.09.58-.08,2.46.15,4.71-.56,6.9-1.61,1.48-.7,2.99-1.37,4.55-1.85,2.67-.83,5.35-.48,7.95.43,1.63.57,3.24,1.22,4.81,1.94,4.51,2.07,9.03,2.06,13.58.18,1.4-.58,2.78-1.19,4.18-1.76,3.2-1.32,6.42-1.2,9.64-.07,1.77.63,3.55,1.25,5.3,1.96,4.02,1.63,8.01,1.65,12.04.02,1.7-.69,3.44-1.3,5.17-1.93,3.7-1.36,7.33-1.22,10.92.47,2.18,1.03,4.41,1.94,6.79,2.42,3.25.66,6.35.19,9.39-1.08,2.04-.85,4.09-1.67,6.19-2.37,3.36-1.12,6.65-.76,9.84.76,1.34.64,2.71,1.23,4.09,1.79,1.32.54,2.71.73,4.12.7.39,0,.78,0,1.27,0v13.03h-3.17c-.25-.07-.5-.12-.74-.21-1.71-.67-3.47-1.24-5.11-2.04-3.28-1.58-6.64-2.22-10.21-1.3-1.01.26-2.01.62-2.97,1.04-2.43,1.06-4.86,2.09-7.51,2.5h-4.75c-.51-.12-1.04-.18-1.52-.36-2.02-.77-4.07-1.49-6.03-2.4-3.25-1.51-6.51-1.78-9.88-.5-1.37.52-2.75,1.01-4.1,1.6-3.99,1.73-8.12,2.07-12.29.96-2.21-.59-4.32-1.54-6.46-2.38-3.31-1.3-6.6-1.44-9.91-.03-2.72,1.17-5.35,2.6-8.31,3.12h-4.89c-.51-.11-1.03-.16-1.52-.33-1.89-.68-3.81-1.3-5.65-2.11-4.05-1.77-8.11-2.17-12.23-.35-2.42,1.07-4.77,2.31-7.41,2.79h-2.64c0-4.31,0-8.63,0-12.94Z"/>
        <path class="cls-2" d="M110.17,30.74c0-.99,0-1.81,0-2.64,0-.59,0-1.19,0-1.78,0-1.31.49-1.81,1.79-1.81,2.24,0,4.49,0,6.73,0,1.3,0,2.6,0,3.9,0,1.7,0,2.12.41,2.12,2.09,0,5.11.01,10.21-.01,15.32,0,.57.19.92.61,1.27,7.16,5.94,14.31,11.9,21.46,17.86.15.13.3.26.45.39.62.55.81,1.17.53,1.82-.29.67-.84.9-1.54.9-3.04,0-6.07,0-9.11,0-.24,0-.47,0-.79,0v36.45c-.41,0-.74.02-1.06,0-2.71-.2-5.21.6-7.68,1.57-2.04.8-4.05,1.69-6.14,2.3-2.31.67-4.73.64-7.02-.06-2.61-.8-5.13-1.89-7.7-2.84-.49-.18-1-.35-1.51-.45-.61-.11-.85-.36-.84-1.04.05-2.51.02-5.02.02-7.53,0-.24,0-.48,0-.78h-20.26v12.96c-.7-.16-1.32-.26-1.91-.46-2.52-.88-5.03-1.8-7.55-2.69-3.7-1.31-7.29-1-10.81.68-2.62,1.25-5.33,2.3-8.22,2.65-2.22.27-4.4-.16-6.49-.98-2.16-.84-4.31-1.73-6.48-2.57-.51-.2-1.04-.35-1.58-.45-.38-.07-.51-.23-.5-.61.02-.86,0-1.72,0-2.57,0-6.12,0-12.23,0-18.35,0-4.07-.02-8.14-.03-12.21,0-.98,0-1.97,0-3.02-.27,0-.51,0-.74,0-2.97,0-5.94,0-8.91,0-1.01,0-1.62-.31-1.83-.98-.26-.85.17-1.41.8-1.92,4.64-3.7,9.28-7.42,13.92-11.13,12.03-9.62,24.06-19.24,36.08-28.86,2.42-1.94,4.85-3.87,7.27-5.81.96-.77,1.57-.78,2.55-.05,6.6,4.95,13.2,9.9,19.8,14.85.18.14.37.27.68.5Z"/>
      </g>
    </g>
  </g>
</svg>