<?xml version="1.0" encoding="UTF-8"?>
<svg id="Layer_2" data-name="Layer 2" xmlns="http://www.w3.org/2000/svg" viewBox="0 0 172.61 216.39">
  <defs>
    <style>
      .cls-1 {
        fill: #000;
      }

      .cls-1, .cls-2 {
        stroke-width: 0px;
      }

      .cls-2 {
        fill: #fff;
      }
    </style>
  </defs>
  <g id="Layer_1-2" data-name="Layer 1">
    <g>
      <path class="cls-1" d="M171.95,98.81c-2.22,20.47-11.58,37.85-24.05,53.79-12.89,16.45-27.93,30.87-42.83,45.41-6.2,6.05-12.39,12.1-18.83,18.38-5.72-5.46-11.27-10.74-16.79-16.04-14.32-13.71-28.79-27.29-41.49-42.57-12.24-14.72-21.96-30.78-25.88-49.8C-5.61,70.61,8.34,35.68,37.91,15.07c30.98-21.6,73.51-19.95,102.94,4.76,24.49,20.55,34.54,47.27,31.1,78.99Z"/>
      <path class="cls-2" d="M155.06,80.94c.21,38.76-32.3,70.85-72.29,68.78-37.55-1.94-65.17-33.02-65.21-68.61-.05-38.63,32.27-70.77,72.32-68.7,37.52,1.94,65.23,32.96,65.18,68.53ZM86.29,105.03s0,.02,0,.03c1.01,0,2.03,0,3.04,0,.68,0,1-.27,1.08-.99.39-3.5.83-6.99,1.24-10.48.48-4,.96-7.99,1.42-11.99.49-4.31.95-8.62,1.41-12.93.44-4.14.88-8.29,1.29-12.43.39-3.95.79-7.9,1.11-11.86.16-1.95.53-3.92-.01-5.88-1.3-4.72-5.43-7.78-10.66-7.88-5.24-.1-11.46,4.36-10.69,11.5.5,4.62.86,9.25,1.31,13.88.5,5.13,1.02,10.25,1.58,15.37.51,4.7,1.09,9.39,1.64,14.09.73,6.18,1.48,12.35,2.18,18.53.09.82.45,1.07,1.19,1.05.96-.02,1.92,0,2.88,0ZM86.34,131.51c5.54.17,10.63-4.61,10.81-10.18.2-6.17-4.46-11.32-10.4-11.49-5.96-.16-11.08,4.53-11.24,10.3-.18,6.35,4.41,11.16,10.83,11.36Z"/>
    </g>
  </g>
</svg>