<?xml version="1.0" encoding="UTF-8"?>
<svg id="Layer_2" data-name="Layer 2" xmlns="http://www.w3.org/2000/svg" viewBox="0 0 172.61 216.39">
  <defs>
    <style>
      .cls-1 {
        fill: #000;
      }

      .cls-1, .cls-2 {
        stroke-width: 0px;
      }

      .cls-2 {
        fill: #fff;
      }
    </style>
  </defs>
  <g id="Layer_1-2" data-name="Layer 1">
    <g>
      <path class="cls-1" d="M171.95,98.81c-2.22,20.47-11.58,37.85-24.05,53.79-12.89,16.45-27.93,30.87-42.83,45.41-6.2,6.05-12.39,12.1-18.83,18.38-5.72-5.46-11.27-10.74-16.79-16.04-14.32-13.71-28.79-27.29-41.49-42.57-12.24-14.72-21.96-30.78-25.88-49.8C-5.61,70.61,8.34,35.68,37.91,15.07c30.98-21.6,73.51-19.95,102.94,4.76,24.49,20.55,34.54,47.27,31.1,78.99Z"/>
      <path class="cls-2" d="M36.06,76.85c0-4.79.67-9.42,1.93-13.82l71.67,71.68c-.71.5-1.55.76-2.41.76h-41.87c-1.67,0-3.19-.99-3.85-2.53l-6.37-14.82c-.92-1.95-2.21-3.71-3.79-5.18-9.79-9.45-15.31-22.49-15.29-36.1M122.34,111.86L51.28,40.81c19.96-19.28,51.77-18.73,71.05,1.24,18.81,19.47,18.81,50.34,0,69.82h0ZM61.18,148.04c0-2.31,1.87-4.19,4.19-4.19h41.87c2.31,0,4.19,1.87,4.19,4.19s-1.87,4.19-4.19,4.19l-1.88,3.74c-1.42,2.84-4.32,4.63-7.49,4.63h-23.15c-3.17,0-6.07-1.79-7.49-4.63l-1.88-3.74c-2.31,0-4.19-1.87-4.19-4.19M39.02,40.39c-1.64-1.64-4.29-1.64-5.93,0-1.64,1.64-1.64,4.29,0,5.93l100.5,100.5c1.64,1.64,4.29,1.64,5.93,0,1.64-1.64,1.64-4.29,0-5.93L39.02,40.39Z"/>
    </g>
  </g>
</svg>