<?xml version="1.0" encoding="UTF-8"?>
<svg id="Layer_2" data-name="Layer 2" xmlns="http://www.w3.org/2000/svg" viewBox="0 0 172.61 216.39">
  <defs>
    <style>
      .cls-1 {
        fill: #000;
      }

      .cls-1, .cls-2 {
        stroke-width: 0px;
      }

      .cls-2 {
        fill: #fff;
      }
    </style>
  </defs>
  <g id="Layer_1-2" data-name="Layer 1">
    <g>
      <path class="cls-1" d="M171.95,98.81c-2.22,20.47-11.58,37.85-24.05,53.79-12.89,16.45-27.93,30.87-42.83,45.41-6.2,6.05-12.39,12.1-18.83,18.38-5.72-5.46-11.27-10.74-16.79-16.04-14.32-13.71-28.79-27.29-41.49-42.57-12.24-14.72-21.96-30.78-25.88-49.8C-5.61,70.61,8.34,35.68,37.91,15.07c30.98-21.6,73.51-19.95,102.94,4.76,24.49,20.55,34.54,47.27,31.1,78.99Z"/>
      <g>
        <path class="cls-2" d="M75.21,65.24c5.02,18.26,9.95,36.21,15.02,54.64-9.38-5.05-19.14-6.45-29.42-5.8-1.04-3.8-2.06-7.5-3.07-11.2-1.42-5.18-2.88-10.36-4.23-15.56-.13-.48.17-1.4.56-1.63,7.94-4.76,14.14-11.33,19.67-18.61.39-.51.8-1,1.48-1.84Z"/>
        <path class="cls-2" d="M105.24,118.16c0,3.32-1.98,5.63-4.8,6.1-2.84.48-5.56-1.13-6.39-3.97-1.54-5.33-2.97-10.68-4.44-16.03-3.66-13.28-7.25-26.58-11-39.83-1.37-4.82,2.47-8.7,6.67-7.73,2.49.57,3.82,2.27,4.47,4.66,2.3,8.45,4.65,16.88,6.97,25.33,2.7,9.79,5.39,19.59,8.07,29.38.23.84.36,1.7.44,2.1Z"/>
        <path class="cls-2" d="M57.18,114.26c-4.37,1.22-8.58,2.39-12.78,3.56-.73.2-1.47.39-2.2.6-3.04.84-3.92.42-5.23-2.63-1.07.27-2.18.55-3.28.83-2.97.77-4.8-.21-5.64-3.11-.98-3.42-1.94-6.85-2.83-10.3-.65-2.5.44-4.38,2.92-5.16,1.16-.37,2.35-.67,3.61-1.02-.03-.44-.05-.83-.09-1.22-.19-1.79.5-2.97,2.24-3.46,5.28-1.48,10.57-2.9,16.04-4.39,2.4,8.72,4.78,17.37,7.23,26.3Z"/>
        <path class="cls-2" d="M58.1,132.43c-1.09-4.53-2.39-9.01-3.66-13.69-3.98,1.09-7.78,2.12-11.71,3.2.24.95.38,1.81.68,2.62,1.57,4.3,1.73,9.1,4.37,13.13,1.1.43,2.17.93,3.23,1.47,1.75-.22,3.63-.77,5.24-1.01,0,0,0,0,0,0,1.9-2.39,2.37-3.57,1.86-5.71Z"/>
        <path class="cls-2" d="M142.83,73.59q3.03,3.77-1.03,6.16c-1.01.59-2.01,1.19-3.02,1.78-1.12.66-2.27.92-3.03-.42-.7-1.24.01-2.08,1.11-2.7,1.06-.6,2.1-1.25,3.39-2.01-.75-.79-1.52-1.41-2.05-2.2-.44-.67-.98-1.66-.77-2.28.21-.63,1.22-1.18,1.98-1.38,1.91-.51,3.88-.81,6.02-1.23-.6-.9-1.15-1.65-1.6-2.45-.69-1.24-.34-2.38,1.01-2.8,3.73-1.17,7.48-2.31,11.27-3.25.59-.15,1.78.62,2.09,1.26.52,1.06-.27,1.91-1.34,2.24-2.51.78-5.04,1.48-7.56,2.22-.27.08-.52.2-.98.38.47.73.87,1.35,1.27,1.97,1.28,1.97.81,3.16-1.45,3.63-1.71.35-3.42.71-5.29,1.09Z"/>
        <path class="cls-2" d="M124.02,119.72c2.3.48,4.29.88,6.27,1.33,2.06.47,2.49,1.82,1.11,3.44-.34.4-.73.76-1.08,1.15-.36.38-.71.77-1.12,1.23,1.17.7,2.26,1.36,3.37,2,1.1.63,1.77,1.5,1.07,2.72-.69,1.21-1.75,1.15-2.86.47-1.65-1-3.33-1.94-4.98-2.94-1.71-1.04-1.85-2.04-.53-3.52.41-.46.84-.91,1.45-1.56-1.9-.37-3.49-.67-5.07-1-2.8-.58-3.22-1.61-1.65-3.96.35-.53.7-1.07,1.17-1.79-2.55-.76-4.97-1.48-7.4-2.2-.5-.15-1.19-.14-1.47-.48-.5-.6-1.15-1.5-1-2.09.14-.56,1.23-1.27,1.88-1.25,1.19.04,2.37.55,3.54.89,2.47.71,4.94,1.41,7.39,2.17,2,.62,2.34,1.62,1.2,3.4-.37.59-.75,1.17-1.28,1.99Z"/>
        <path class="cls-2" d="M67.37,38.49c-2.01-.42-3.78-.78-5.55-1.16-2.05-.44-2.55-1.65-1.41-3.43.43-.67.89-1.33,1.46-2.18-2.85-.85-5.45-1.66-8.08-2.39-1.27-.35-2.29-.93-1.92-2.39.41-1.61,1.7-1.5,2.98-1.13,3.14.92,6.27,1.84,9.41,2.76,2.62.76,2.97,1.73,1.46,4.02-.29.44-.57.87-1.03,1.56,2.01.41,3.89.68,5.69,1.19.87.25,2.06.8,2.29,1.48.22.67-.52,1.74-1.02,2.52-.42.67-1.09,1.19-1.8,1.93,1.29.76,2.44,1.42,3.56,2.11.99.62,1.63,1.44.92,2.62-.68,1.14-1.7,1.12-2.74.53-1.73-.98-3.45-1.97-5.15-3.01-1.67-1.02-1.78-2.06-.45-3.55.42-.46.84-.92,1.37-1.5Z"/>
        <path class="cls-2" d="M106.38,51.49q2.83,3.62-1.19,5.99c-.91.53-1.82,1.06-2.72,1.61-1.17.72-2.43,1.32-3.31-.25-.81-1.44.22-2.24,1.39-2.89.97-.53,1.91-1.12,3.08-1.82-.82-.88-1.58-1.64-2.29-2.45-1.27-1.47-.79-2.96,1.1-3.38,2.04-.45,4.09-.82,6.34-1.27-.57-.88-1.06-1.58-1.5-2.32-.81-1.4-.43-2.57,1.1-3.04,3.57-1.1,7.17-2.11,10.76-3.14,1.2-.35,2.16.07,2.49,1.28.32,1.16-.36,1.89-1.46,2.22-2.78.83-5.57,1.65-8.52,2.53.51.8.94,1.48,1.37,2.16,1.2,1.87.72,3.05-1.46,3.53-1.65.37-3.31.69-4.97,1.03-.05,0-.08.08-.23.22Z"/>
        <path class="cls-2" d="M24.36,67.64c-2.9-.86-5.69-1.68-8.48-2.51-1.15-.34-2-1.13-1.43-2.29.3-.62,1.52-1.32,2.13-1.17,3.79.93,7.54,2.04,11.27,3.19,1.32.41,1.62,1.58.92,2.84-.23.41-.53.77-.78,1.17-.21.34-.4.69-.71,1.22,2.11.45,4.09.85,6.06,1.31,2.26.53,2.66,1.89,1.09,3.62-.63.69-1.28,1.36-2.08,2.2,1.23.73,2.34,1.4,3.47,2.05,1.12.65,1.66,1.58.95,2.76-.67,1.11-1.7,1.05-2.75.43-1.61-.96-3.23-1.89-4.83-2.85-2.02-1.21-2.14-2.12-.55-3.84.35-.37.67-.76,1.18-1.34-2-.43-3.79-.82-5.58-1.21-2.01-.45-2.48-1.54-1.4-3.27.46-.74.95-1.46,1.5-2.31Z"/>
        <path class="cls-2" d="M128.56,89.25c.01,4.33-1.1,8.33-3.11,12.12-.64,1.21-1.53,1.91-2.82,1.21-1.24-.68-1.04-1.81-.44-2.9,5.86-10.61,1.77-23.61-7.84-29.3-1.06-.63-1.77-1.49-.96-2.74.78-1.2,1.86-1.02,2.91-.35,8.04,5.12,11.98,12.53,12.25,21.96Z"/>
        <path class="cls-2" d="M119.8,89.36c-.77,2.48-1.49,4.98-2.34,7.43-.42,1.2-1.42,1.84-2.65,1.25-1.24-.59-1.21-1.65-.65-2.84,3.12-6.66,1.53-12.65-4.46-16.92-1.02-.73-1.71-1.55-.9-2.76.79-1.17,1.79-.99,2.9-.31,4.73,2.9,7.64,8.18,7.63,13.99.15.05.31.1.46.14Z"/>
        <path class="cls-2" d="M98.38,79.43c4.68,1.48,7.47,4.26,8.4,8.6.82,3.82-.19,7.24-3.18,10.37-1.76-6.39-3.44-12.5-5.22-18.97Z"/>
        <path class="cls-2" d="M36.93,49.31c1.21-.01,2.73-1.69,3.49.28.69,1.79-1.34,1.79-2.31,2.54-.15,1.17,1.72,2.8-.42,3.54-1.85.64-1.69-1.47-2.51-2.35-1.2.02-2.84,1.67-3.55-.38-.6-1.75,1.47-1.69,2.41-2.43,0-1.19-1.59-2.73.26-3.51,1.9-.79,1.8,1.45,2.62,2.31Z"/>
        <path class="cls-2" d="M143.62,50.36c-.96-.52-2.88.31-2.82-1.6.06-1.96,1.87-.97,3.02-1.38.45-.97-.45-3.12,1.64-2.85.67.09,1.15,1.74,1.61,2.5.93.67,2.54,1.27,2.57,1.95.09,1.95-1.88,1.07-2.97,1.49-.51,1.02.32,3.06-1.68,2.82-.64-.08-1.09-1.67-1.62-2.57.09-.12.17-.24.26-.36Z"/>
      </g>
    </g>
  </g>
</svg>