<?xml version="1.0" encoding="UTF-8"?>
<svg id="Layer_2" data-name="Layer 2" xmlns="http://www.w3.org/2000/svg" viewBox="0 0 172.61 216.39">
  <defs>
    <style>
      .cls-1 {
        fill: #000;
      }

      .cls-1, .cls-2 {
        stroke-width: 0px;
      }

      .cls-2 {
        fill: #fff;
      }
    </style>
  </defs>
  <g id="Layer_1-2" data-name="Layer 1">
    <g>
      <path class="cls-1" d="M171.95,98.81c-2.22,20.47-11.58,37.85-24.05,53.79-12.89,16.45-27.93,30.87-42.83,45.41-6.2,6.05-12.39,12.1-18.83,18.38-5.72-5.46-11.27-10.74-16.79-16.04-14.32-13.71-28.79-27.29-41.49-42.57-12.24-14.72-21.96-30.78-25.88-49.8C-5.61,70.61,8.34,35.68,37.91,15.07c30.98-21.6,73.51-19.95,102.94,4.76,24.49,20.55,34.54,47.27,31.1,78.99Z"/>
      <g>
        <path class="cls-2" d="M29.39,108.02c.42-2.11.71-4.26,1.27-6.33,1.26-4.61,3.99-8.24,7.77-10.87-1.9-1.59-3.84-2.92-5.4-4.6-2.12-2.27-1.25-4.67,1.75-5.46.67-.18,1.36-.31,2.05-.43,1.96-.35,3.64-.19,4.31,2.15.18.63.7,1.17,1.01,1.67,4.36-8.04,3.53-18.65,12.44-24.8,1,2.21,1.8,4,2.29,5.09-1.67,2.47-3.5,4.34-4.34,6.58-2.02,5.42-3.58,11-5.4,16.76h80.57c-1.28-5.25-2.47-10.3-3.76-15.32-.32-1.25-.65-2.68-1.47-3.58-1.63-1.8-3.61-3.28-5.87-5.27.35-.93.97-2.59,1.65-4.39,3.76-.43,6.63,1.31,8.17,4.39,1.8,3.61,2.92,7.58,4.14,11.45.88,2.81,1.45,5.71,2.18,8.68,1.6-1.08,1.24-4.01,4.04-3.52,2.48.43,5.13.36,6.42,3.15v1.05c-2.46,2.35-4.93,4.7-7.61,7.26.24.36.83,1.2,1.38,2.07,1.57,2.48,3.4,4.86,4.61,7.51.94,2.07,1.11,4.5,1.62,6.77v9.44c-.27,4.89-.64,9.77-.77,14.66-.06,2.06-.52,3.69-2.37,4.75h-16.78c-1.03-1.92-2.06-3.83-3.25-6.05H52.69c-1.33,2.4-2.35,4.22-3.36,6.05h-16.78c-1.71-1.03-2.21-2.54-2.27-4.52-.17-5.32-.57-10.62-.88-15.93,0-2.8,0-5.59,0-8.39ZM53.77,115.8c2.09,0,4.19.14,6.26-.04,1.65-.14,3.17-.87,2.72-2.98-.54-2.55-2.01-4.67-4.62-5.12-4.78-.84-9.63-1.33-14.46-1.82-2.11-.22-2.89,1.04-2.22,2.97,1.79,5.14,2.57,7.22,8.66,6.99,1.22-.05,2.44,0,3.65,0ZM118.95,115.84s0-.03,0-.05c1.13,0,2.27,0,3.4,0,5.58-.04,7.17-1.23,8.75-6.59.73-2.48,0-3.6-2.55-3.35-4.59.44-9.21.83-13.69,1.8-1.69.37-3.48,2.02-4.44,3.57-1.66,2.71-.44,4.47,2.77,4.61,1.91.08,3.84.01,5.75.01Z"/>
        <path class="cls-2" d="M89.71,15.18c5.72,1.19,10.9,3.35,15.03,7.74,4.06,4.31,6.53,9.41,6.91,15.17,1.27,19.61-7.55,34.18-23.3,45.06-.56.39-1.77.48-2.32.14-13.31-8.26-26.54-24.78-25.27-43.3.84-12.25,10.25-22.55,22.49-24.33.59-.09,1.16-.32,1.74-.48,1.57,0,3.15,0,4.72,0ZM86.25,62.07c1.38-.19,2.79-.24,4.12-.59,13.33-3.47,18.85-20.08,10.56-31.69-6.16-8.63-17.18-10.42-25.49-4.04-4.52,3.47-6.9,8.23-7.55,13.83-1.4,11.89,7.47,22.58,18.35,22.49Z"/>
        <path class="cls-2" d="M78.75,31.45c3.87,0,7.53-.15,11.18.04,3.6.19,6.42,3.18,6.6,6.6.23,4.09-1.85,7.2-5.58,8-1.85.4-3.79.41-5.92.62v5.56h-6.28v-20.81ZM85.03,42.04c1.89-.68,3.46-1,4.69-1.82.41-.27.3-2.42-.19-2.71-1.24-.77-2.83-.98-4.5-1.48v6.01Z"/>
      </g>
    </g>
  </g>
</svg>