<?xml version="1.0" encoding="UTF-8"?>
<svg id="Layer_2" data-name="Layer 2" xmlns="http://www.w3.org/2000/svg" viewBox="0 0 172.61 216.39">
  <defs>
    <style>
      .cls-1 {
        fill: #000;
      }

      .cls-1, .cls-2 {
        stroke-width: 0px;
      }

      .cls-2 {
        fill: #fff;
      }
    </style>
  </defs>
  <g id="Layer_1-2" data-name="Layer 1">
    <g>
      <path class="cls-1" d="M171.95,98.81c-2.22,20.47-11.58,37.85-24.05,53.79-12.89,16.45-27.93,30.87-42.83,45.41-6.2,6.05-12.39,12.1-18.83,18.38-5.72-5.46-11.27-10.74-16.79-16.04-14.32-13.71-28.79-27.29-41.49-42.57-12.24-14.72-21.96-30.78-25.88-49.8C-5.61,70.61,8.34,35.68,37.91,15.07c30.98-21.6,73.51-19.95,102.94,4.76,24.49,20.55,34.54,47.27,31.1,78.99Z"/>
      <g>
        <path class="cls-2" d="M163.03,97.31c-.67,3.08-1.24,6.18-2.01,9.23-2.29,8.99-6.08,17.35-10.61,25.42-1.02,1.83-2.18,2.51-4.19,2.26-1.73-.22-3.48-.21-5.36-.3,2.92-4.65,5.85-8.93,8.4-13.43,4.89-8.65,8.58-17.75,9.4-27.81,1.2-14.7-4.98-25.56-17.27-33.25-.79-.49-1.61-.93-2.41-1.4-.7-.42-1.4-.84-1.91-1.72.83.29,1.68.52,2.47.87,12.36,5.45,20.93,14.03,23.07,27.93.05.35.27.68.42,1.01v11.2Z"/>
        <path class="cls-2" d="M68.95,88.89c.82,2.16,1.42,4.43,2.49,6.45,2.32,4.37,2.35,8.8,1.34,13.53-1.32,6.19-2.28,12.45-3.36,18.69-.47,2.72-1.46,5.08-4.32,5.98-4.32,1.35-8.3-2.27-7.53-6.86,1.22-7.26,2.57-14.49,3.75-21.75.2-1.21.11-2.61-.32-3.75-2.42-6.45-5.1-12.8-7.41-19.29-.64-1.79-.72-4.04-.28-5.91,1.69-7.21,3.68-14.35,5.56-21.52-.27-.09-.54-.18-.81-.27-.77,2.76-1.54,5.51-2.49,8.92-1.99-3.28-3.83-5.93-5.26-8.79-.98-1.96.06-3.68,1.92-4.65,3.38-1.77,6.78-3.53,10.27-5.06,1.09-.48,2.59-.52,3.77-.23,5.43,1.32,10.79,2.88,16.21,4.23,2.37.59,3.7,1.91,4.14,4.3.43,2.29,1.18,4.52,1.48,6.82.96,7.34,4.79,13.42,8.43,19.59.76,1.28,1.53,2.56,2.21,3.88,1.21,2.33.72,4.54-1.27,5.53-2.25,1.12-4.01.32-5.21-1.72-2.22-3.77-4.41-7.57-6.52-11.4-1.38-2.5-2.61-5.07-4.01-7.8-.63,2.22-1.07,4.71-2.04,6.96-1.78,4.14-1.05,7.14,3.09,9.3,5.65,2.96,8.12,7.95,9.22,14.09.95,5.3,2.68,10.45,4.02,15.68.97,3.8-.8,6.91-4.33,7.77-3.12.76-6.05-1.18-7.03-4.8-1.64-6.02-3.11-12.08-4.86-18.06-.43-1.48-1.41-3.01-2.57-4.04-2.49-2.23-5.25-4.15-7.91-6.2-.13.12-.25.23-.38.35Z"/>
        <path class="cls-2" d="M77.82,22.88c5.81.06,10.4,4.71,10.4,10.53,0,5.89-4.83,10.69-10.66,10.61-5.75-.09-10.4-4.82-10.39-10.59,0-5.95,4.71-10.61,10.65-10.55Z"/>
        <path class="cls-2" d="M19.99,122.01c12.95-3.52,25.25-6.87,37.53-10.21.43,5.21-.18,6.25-4.99,7.86-6.09,2.04-12.22,3.97-18.3,6.04-1.95.66-3.69.7-5.62-.22-2.64-1.26-5.43-2.2-8.62-3.47Z"/>
        <path class="cls-2" d="M95.35,102.11c-.52-1.74-.84-2.79-1.24-4.13.9-.46,1.81-.86,2.65-1.38,6.84-4.28,13.77-8.44,20.45-12.96,2.08-1.41,3.69-3.69,5.14-5.82,3.46-5.09,3.28-10.35-.44-15.29-1.44-1.91-3.22-3.56-4.97-5.45.45,0,.96-.16,1.23.02,7.29,4.8,13.49,12.77,6.38,22.49-3.44,4.71-8.12,8.71-12.8,12.28-4.99,3.8-10.66,6.72-16.4,10.25Z"/>
        <path class="cls-2" d="M121.83,137.4c2.02-3.6,7.41-3.68,9.7-.14-2.45,1.91-6.74,1.97-9.7.14Z"/>
        <path class="cls-2" d="M84.16,127c-3.58,1.14-6.8,1.27-10.18,0,2.29-3.92,7.65-3.96,10.18,0Z"/>
        <path class="cls-2" d="M41.78,129.99c.74-2.69,2.6-2.97,4.48-3.05,2.16-.09,4.27.13,5.64,2.79-3.42,1.46-6.58,1.26-10.11.26Z"/>
        <path class="cls-2" d="M96.92,129.9c-3.66,1.14-6.82,1.3-10.13-.06.8-2.48,2.59-2.84,4.5-2.89,2.17-.06,4.28.12,5.63,2.96Z"/>
        <path class="cls-2" d="M127.24,130.26h-10.28c.27-2.65,1.93-3.04,3.55-3.23,2.42-.29,4.82-.25,6.73,3.23Z"/>
        <path class="cls-2" d="M99.13,132.62c2.44-3.58,7.68-3.52,9.67-.07-2.14,1.65-6.89,1.74-9.67.07Z"/>
        <path class="cls-2" d="M112.55,126.59h-10.16c.77-3.07,2.91-3.19,4.75-3.26,1.98-.07,4.13.09,5.41,3.26Z"/>
        <path class="cls-2" d="M71.61,134.4c2.14-3.57,7.53-3.58,9.67-.21-1.99,1.69-6.73,1.83-9.67.21Z"/>
        <path class="cls-2" d="M80.24,108.86c-1.87.79-3.55,1.5-5.28,2.23-.36-4.73.18-5.67,3.9-6.7.24.65.51,1.3.72,1.98.22.7.38,1.42.66,2.49Z"/>
        <path class="cls-2" d="M129.67,123.38c2.98-2.74,6.1-2.6,8.18.17-2.11,1.71-6.13,1.67-8.18-.17Z"/>
        <path class="cls-2" d="M134.23,114.74h-8.92c2.18-3.57,6.09-3.65,8.92,0Z"/>
        <path class="cls-2" d="M146.37,118.56h-8.47c-.13-.29-.27-.58-.4-.88.94-.6,1.81-1.55,2.82-1.74,2.09-.41,4.28-.49,6.05,2.62Z"/>
        <path class="cls-2" d="M99.58,117.05c2.66-3.58,6.65-3.53,8.84,0h-8.84Z"/>
        <path class="cls-2" d="M110.37,112.12c.87-2.62,2.75-2.85,4.43-2.71,1.43.11,2.81.95,4.21,1.47-.1.42-.21.83-.31,1.25h-8.33Z"/>
        <path class="cls-2" d="M123.75,120.51h-8.63c.67-2.5,2.43-2.72,4.03-2.75,1.7-.03,3.54.15,4.59,2.75Z"/>
        <path class="cls-2" d="M133.74,102.33c2.4-2.51,3.98-2.52,6.56,0h-6.56Z"/>
        <path class="cls-2" d="M120.57,99.87c2.04-2.44,3.55-2.51,6.5,0h-6.5Z"/>
        <path class="cls-2" d="M104.7,108.03h-6.52c2.14-2.47,3.84-2.5,6.52,0Z"/>
        <path class="cls-2" d="M137.49,96.95h-5.77c1.33-2.51,3.59-2.6,5.77,0Z"/>
        <path class="cls-2" d="M149.88,100.02c2.29-2.6,3.93-2.61,6.23,0h-6.23Z"/>
        <path class="cls-2" d="M110.29,102.49h-6.27c1.84-2.46,3.79-2.51,6.27,0Z"/>
        <path class="cls-2" d="M133.59,108.45h-6.1c1.87-2.64,3.78-2.68,6.1,0Z"/>
        <path class="cls-2" d="M114.61,105.51c2.54-2.54,4.08-2.54,6.55,0h-6.55Z"/>
        <path class="cls-2" d="M120.99,95.43h-6.22c1.98-2.56,3.71-2.61,6.22,0Z"/>
        <path class="cls-2" d="M144.95,111.17h-5.94c1.71-2.71,3.83-2.76,5.94,0Z"/>
        <path class="cls-2" d="M152.72,105.61h-5.92c1.61-2.67,3.72-2.74,5.92,0Z"/>
        <path class="cls-2" d="M131.3,91.77h-5.01c1.44-1.84,2.92-2.24,5.01,0Z"/>
        <path class="cls-2" d="M141.05,92.48h4.46c0,.31.01.62.02.93h-4.46c0-.31,0-.62-.01-.93Z"/>
        <path class="cls-2" d="M146.62,86.75h-4.39c0-.34,0-.68,0-1.01h4.44c-.02.34-.04.68-.06,1.01Z"/>
        <path class="cls-2" d="M153.14,93.51h-4.52c0-.34,0-.67,0-1.01h4.5c0,.34.02.67.02,1.01Z"/>
        <path class="cls-2" d="M128.19,85.79h-4.29c1.37-1.98,2.82-2.06,4.29,0Z"/>
        <path class="cls-2" d="M151.5,87.15h4.51v.91h-4.43c-.03-.3-.05-.61-.08-.91Z"/>
      </g>
    </g>
  </g>
</svg>