<?xml version="1.0" encoding="UTF-8"?>
<svg id="Layer_2" data-name="Layer 2" xmlns="http://www.w3.org/2000/svg" viewBox="0 0 172.61 216.39">
  <defs>
    <style>
      .cls-1 {
        fill: #000;
      }

      .cls-1, .cls-2 {
        stroke-width: 0px;
      }

      .cls-2 {
        fill: #fff;
      }
    </style>
  </defs>
  <g id="Layer_1-2" data-name="Layer 1">
    <g>
      <path class="cls-1" d="M171.95,98.81c-2.22,20.47-11.58,37.85-24.05,53.79-12.89,16.45-27.93,30.87-42.83,45.41-6.2,6.05-12.39,12.1-18.83,18.38-5.72-5.46-11.27-10.74-16.79-16.04-14.32-13.71-28.79-27.29-41.49-42.57-12.24-14.72-21.96-30.78-25.88-49.8C-5.61,70.61,8.34,35.68,37.91,15.07c30.98-21.6,73.51-19.95,102.94,4.76,24.49,20.55,34.54,47.27,31.1,78.99Z"/>
      <g>
        <path class="cls-2" d="M86.3,165.22c-8.55,0-16.85-1.68-24.66-4.98-7.54-3.19-14.32-7.76-20.13-13.57-5.82-5.82-10.38-12.59-13.57-20.13-3.31-7.81-4.98-16.11-4.98-24.66v-55.61c0-3.31,2.55-6.06,5.85-6.32l12.31-.95c10.07-.78,19.91-3.14,29.24-7.03l13.51-5.63c1.56-.65,3.31-.65,4.87,0l13.51,5.63c9.33,3.89,19.16,6.25,29.24,7.03l12.31.95c3.3.25,5.85,3.01,5.85,6.32v55.61c0,8.55-1.68,16.85-4.98,24.66-3.19,7.54-7.76,14.32-13.57,20.13-5.82,5.82-12.59,10.38-20.13,13.57-7.81,3.31-16.11,4.98-24.66,4.98ZM35.62,52.13v49.74c0,27.95,22.74,50.68,50.68,50.68s50.68-22.74,50.68-50.68v-49.74l-6.47-.5c-11.42-.88-22.57-3.56-33.14-7.96l-11.08-4.62-11.08,4.62c-10.57,4.4-21.72,7.08-33.14,7.96l-6.47.5Z"/>
        <path class="cls-2" d="M105.31,120.88c-1.62,0-3.24-.62-4.48-1.86l-14.53-14.53-14.53,14.53c-2.47,2.47-6.48,2.47-8.96,0-2.47-2.47-2.47-6.48,0-8.96l14.53-14.53-14.53-14.53c-2.47-2.47-2.47-6.48,0-8.96,2.47-2.47,6.48-2.47,8.96,0l14.53,14.53,14.53-14.53c2.47-2.47,6.49-2.47,8.96,0,2.47,2.47,2.47,6.48,0,8.96l-14.53,14.53,14.53,14.53c2.47,2.47,2.47,6.48,0,8.96-1.24,1.24-2.86,1.86-4.48,1.86Z"/>
      </g>
    </g>
  </g>
</svg>