<?xml version="1.0" encoding="UTF-8"?>
<svg id="Layer_2" data-name="Layer 2" xmlns="http://www.w3.org/2000/svg" viewBox="0 0 172.61 216.39">
  <defs>
    <style>
      .cls-1 {
        fill: #000;
      }

      .cls-1, .cls-2 {
        stroke-width: 0px;
      }

      .cls-2 {
        fill: #fff;
      }
    </style>
  </defs>
  <g id="Layer_1-2" data-name="Layer 1">
    <g>
      <path class="cls-1" d="M171.95,98.81c-2.22,20.47-11.58,37.85-24.05,53.79-12.89,16.45-27.93,30.87-42.83,45.41-6.2,6.05-12.39,12.1-18.83,18.38-5.72-5.46-11.27-10.74-16.79-16.04-14.32-13.71-28.79-27.29-41.49-42.57-12.24-14.72-21.96-30.78-25.88-49.8C-5.61,70.61,8.34,35.68,37.91,15.07c30.98-21.6,73.51-19.95,102.94,4.76,24.49,20.55,34.54,47.27,31.1,78.99Z"/>
      <g>
        <path class="cls-2" d="M69.39,35.27c-8.58,16.91-8.6,33.71,0,50.69-.5,0-.96,0-1.42,0-9.77,0-19.54-.06-29.3.04-3.06.03-5.35-1.17-7.22-3.39-3.03-3.6-4.56-7.88-5.48-12.4-1.72-8.45-1.43-16.81,1.73-24.89.96-2.45,2.43-4.77,4.01-6.9,1.63-2.21,3.99-3.21,6.89-3.18,9.77.09,19.54.04,29.3.04h1.49Z"/>
        <path class="cls-2" d="M141.29,125.61c-1.23-.9-2.48-1.79-3.7-2.71-5.45-4.09-10.62-4.09-16.06.02-.77.58-1.53,1.18-2.33,1.73-2.76,1.92-6.08,1.84-8.9,0-2.12-1.38-3.51-2.74-3.02-5.72.51-3.15.97-6.25,2.58-9.03,2.06-3.55,3.32-7.31,3.77-11.41.59-5.34-1.86-10.49-6.49-13-4.17-2.26-6.43-5.92-7.95-10.18,6.06-4.98,15.88-5.57,23.04-1.29,6.74,4.03,10.27,10.06,10.48,17.93.15,5.91,1.44,11.49,4.43,16.62,1.29,2.22,1.94,4.55,1.97,7.14.04,3.37.93,6.58,2.44,9.62l-.27.29Z"/>
        <path class="cls-2" d="M97.75,94.39c-3.65,0-7.09.2-10.51-.05-5.18-.37-8.96-3.36-12.03-7.3-4.07-5.22-6.22-11.27-7.26-17.73-1.58-9.85-.76-19.46,3.36-28.64,2.27-5.06,5.43-9.46,10.45-12.19,2.08-1.13,4.31-1.71,6.7-1.69,3.03.03,6.06,0,9.31,0-10.09,9.14-13.54,20.88-13.55,33.75,0,12.89,3.43,24.64,13.53,33.83Z"/>
        <path class="cls-2" d="M22.99,129.87c4.14.96,7.78-.01,11.03-2.63.75-.61,1.53-1.18,2.32-1.74,2.8-1.99,6.18-1.99,8.99,0,1.08.76,2.11,1.59,3.17,2.36,4.23,3.09,9.75,3.15,14.05.14,1.04-.73,2.04-1.53,3.07-2.28,3.08-2.27,6.45-2.29,9.52-.04.96.7,1.9,1.42,2.86,2.13,4.33,3.19,9.9,3.24,14.27.11,1.07-.77,2.1-1.6,3.17-2.37,2.85-2.05,6.23-2.05,9.09,0,1.04.74,2.04,1.53,3.07,2.28,4.32,3.18,9.9,3.21,14.27.08.96-.69,1.9-1.42,2.85-2.13,3.15-2.33,6.49-2.35,9.62-.06.78.57,1.57,1.13,2.32,1.74,3.95,3.2,8.18,3.81,12.95,1.29,0,2.38.03,4.63-.04,6.88-.01.35-.46.72-.76,1.02-2.64,2.6-5.99,2.84-8.96.66-1.06-.78-2.1-1.6-3.17-2.37-4.42-3.19-9.98-3.15-14.37.09-1.03.76-2.03,1.54-3.07,2.28-2.81,1.98-6.19,1.97-8.99-.02-1.04-.74-2.04-1.54-3.07-2.29-4.48-3.26-10.03-3.24-14.47.05-.95.71-1.9,1.43-2.86,2.12-3.01,2.18-6.4,2.16-9.41-.06-.96-.7-1.89-1.43-2.85-2.13-4.47-3.25-10.03-3.22-14.47.08-1.02.76-2.03,1.55-3.07,2.28-2.76,1.93-6.13,1.93-8.88-.01-1.11-.79-2.17-1.65-3.28-2.44-4.37-3.13-9.92-3.06-14.27.1-1.9,1.38-3.58,3.17-6.05,3.61-.56.1-1.13.18-1.7.18-2.62-.02-3-.4-2.99-2.95,0-1.85,0-3.7.02-5.54,0-.08.04-.17.09-.39Z"/>
        <path class="cls-2" d="M22.88,142.52c4.53,1.09,8.31-.22,11.73-3.03,1.08-.88,2.27-1.71,3.54-2.26,2.49-1.07,4.91-.63,7.13.9,1.09.75,2.11,1.58,3.18,2.36,4.32,3.18,9.9,3.21,14.27.07,1.04-.74,2.03-1.54,3.07-2.29,2.9-2.11,6.29-2.13,9.2-.04,1.04.74,2.04,1.53,3.07,2.29,4.28,3.14,9.84,3.18,14.16.11,1.08-.76,2.11-1.59,3.17-2.37,2.9-2.1,6.29-2.11,9.2,0,1.03.75,2.04,1.53,3.07,2.29,4.24,3.1,9.75,3.16,14.05.14,1.04-.73,2.04-1.53,3.07-2.28,3.08-2.27,6.45-2.29,9.52-.05,1.06.78,2.1,1.6,3.17,2.37,3.59,2.59,7.4,3.03,11.42,1.05.19-.09.38-.18.75-.36,0,1.63.02,3.1-.02,4.57,0,.27-.19.57-.38.79-2.44,2.9-6.26,3.36-9.32,1.12-1.07-.78-2.1-1.6-3.17-2.37-4.46-3.25-10.02-3.2-14.47.11-.99.73-1.96,1.49-2.97,2.2-2.87,2.03-6.25,2.02-9.09-.04-1-.72-1.97-1.48-2.96-2.21-4.54-3.32-10.06-3.29-14.58.06-1.02.76-2.03,1.55-3.08,2.28-2.77,1.92-6.13,1.89-8.88-.07-1.11-.79-2.17-1.65-3.28-2.44-4.33-3.09-9.88-3.05-14.16.09-1.03.75-2.03,1.54-3.07,2.29-2.92,2.09-6.3,2.08-9.2-.03-.93-.67-1.83-1.37-2.75-2.05-4.72-3.49-10.14-3.44-14.9.05-1.79,1.31-3.4,2.97-5.73,3.4-.47.09-.95.17-1.43.18-2.91.06-3.31-.33-3.31-3.15v-3.65Z"/>
        <path class="cls-2" d="M128.91,73.67c-1.12-.84-2.21-1.57-3.18-2.45-.27-.24-.27-.94-.19-1.39,1.45-8.28,1.09-16.46-1.53-24.48-1.17-3.58-2.86-6.89-5.39-9.73-5.36-6.04-12.81-6.08-18.21-.06-3.06,3.41-4.92,7.47-6.06,11.86-2.72,10.46-2.47,20.8,1.59,30.9,1.91,4.75,4.74,8.79,9.59,11.1,1.8.85,3.04,2.8,3.59,4.96-2.27,0-4.34-.64-6.28-1.69-4.13-2.23-6.97-5.7-9.2-9.73-3.18-5.75-4.74-11.99-5.17-18.5-.57-8.73.63-17.18,4.59-25.11,1.69-3.38,3.86-6.39,6.78-8.83,5.92-4.95,13.36-4.97,19.27-.01,4.79,4.01,7.55,9.32,9.34,15.17,2.72,8.9,2.86,17.9.79,26.95-.07.33-.2.64-.33,1.04Z"/>
        <path class="cls-2" d="M121.33,68.88c-5.43-2.15-10.89-2.5-16.43-.97.13-2.85.37-5.61.35-8.37-.04-5.86-1.18-11.52-3.49-16.91-.38-.88-.4-1.56.22-2.26.96-1.09,1.8-2.3,2.88-3.24,2.93-2.53,6.23-2.53,9.22-.09,3.09,2.51,4.72,5.97,5.94,9.63,2.36,7.1,2.69,14.38,1.55,21.74-.02.12-.11.22-.24.47Z"/>
        <path class="cls-2" d="M22.88,119.32c4.36,1.03,8.01-.08,11.26-2.74.72-.58,1.46-1.13,2.22-1.66,2.8-1.97,6.18-1.97,8.99.03,1.07.77,2.11,1.59,3.17,2.36,4.3,3.12,9.83,3.13,14.16.03,1.07-.77,2.1-1.6,3.17-2.37,2.86-2.05,6.24-2.06,9.09-.02,1.07.77,2.11,1.59,3.17,2.36,4.3,3.11,9.84,3.11,14.16,0,1.11-.8,2.16-1.67,3.28-2.44,2.26-1.55,4.71-1.87,7.26-.83.36.15.8.73.78,1.09-.12,1.66-.38,3.3-.6,5.05-.68-.08-1.4-.17-2.12-.23-2.97-.26-5.65.56-8.05,2.31-.96.7-1.9,1.43-2.86,2.13-3.13,2.29-6.48,2.26-9.62-.06-.92-.68-1.83-1.38-2.75-2.05-4.47-3.25-10.03-3.22-14.47.08-1.02.76-2.03,1.55-3.07,2.28-2.76,1.93-6.13,1.93-8.88,0-1.11-.78-2.17-1.65-3.28-2.44-4.36-3.14-9.93-3.07-14.27.09-1.87,1.36-3.52,3.11-5.92,3.58-.6.12-1.22.21-1.82.21-2.63-.01-3-.39-3-2.93,0-1.23,0-2.45,0-3.82Z"/>
        <path class="cls-2" d="M97.96,70.94c-1.74-8.06-1.57-15.9,1.12-23.72.34,1.31.72,2.61,1.01,3.93,1.26,5.73,1.17,11.49.38,17.28-.22,1.58-1.3,1.88-2.51,2.51Z"/>
        <path class="cls-2" d="M143.83,120.05c2.12-.59,3.91-1.09,5.69-1.58.64,4.09-.1,5.9-3.13,7.03-.85-1.82-1.72-3.66-2.55-5.45Z"/>
      </g>
    </g>
  </g>
</svg>