<?xml version="1.0" encoding="UTF-8"?>
<svg id="Layer_2" data-name="Layer 2" xmlns="http://www.w3.org/2000/svg" viewBox="0 0 172.61 216.39">
  <defs>
    <style>
      .cls-1 {
        fill: #000;
      }

      .cls-1, .cls-2 {
        stroke-width: 0px;
      }

      .cls-2 {
        fill: #fff;
      }
    </style>
  </defs>
  <g id="Layer_1-2" data-name="Layer 1">
    <path class="cls-1" d="M171.95,98.81c-2.22,20.47-11.58,37.85-24.05,53.79-12.89,16.45-27.93,30.87-42.83,45.41-6.2,6.05-12.39,12.1-18.83,18.38-5.72-5.46-11.27-10.74-16.79-16.04-14.32-13.71-28.79-27.29-41.49-42.57-12.24-14.72-21.96-30.78-25.88-49.8C-5.61,70.61,8.34,35.68,37.91,15.07c30.98-21.6,73.51-19.95,102.94,4.76,24.49,20.55,34.54,47.27,31.1,78.99Z"/>
    <g>
      <path class="cls-2" d="M93.34,98.88c.64,3.25,1.24,6.4,1.88,9.55.61,3.01-.28,4.83-3.57,5.45-4.87.92-9.69,2.1-14.52,3.24-3.09.73-4.77-.31-5.45-3.5-3.33-15.56-6.79-31.1-10.11-46.66-.3-1.39-.23-3.02.19-4.39,3.35-11.03,6.86-22.01,10.22-33.05.76-2.5,2.11-3.84,4.72-4.35,5.43-1.07,10.81-2.39,16.21-3.61,2.3-.52,4.36-.15,4.96,2.39.6,2.53-1.01,3.79-3.37,4.3-4.29.92-8.55,1.94-12.84,2.81-2.09.42-3.28,1.3-3.94,3.55-2.75,9.28-5.86,18.46-8.63,27.74-.56,1.87-.62,4.09-.23,6,2.7,12.98,5.58,25.93,8.41,38.89.19.89.51,1.75.84,2.83,3.23-.74,6.33-1.44,9.86-2.25-.68-3.41-1.2-6.67-2.01-9.87-.76-3,.23-4.68,3.2-5.33,16.33-3.59,32.66-7.2,49-10.75,2.14-.47,4.38-.39,4.95,2.36.58,2.82-1.27,3.88-3.69,4.4-14.87,3.24-29.74,6.5-44.61,9.76-.43.1-.85.28-1.45.49Z"/>
      <path class="cls-2" d="M127.94,120.5c-2.54,0-5.1.13-7.63-.02-8.02-.47-15.25.81-22.7,4.84-14.6,7.89-28.8,4.96-41.69-5.07-1.87-1.46-2.87-3.29-1.22-5.33,1.62-2.02,3.6-1.52,5.47,0,13.76,11.27,29.27,9.81,42,.08,1-.77,2.5-1.24,3.77-1.25,14.23-.09,28.45-.04,42.68-.07,2.35,0,4.3.51,4.32,3.26.02,2.91-2.08,3.55-4.51,3.55-6.82,0-13.65,0-20.47,0Z"/>
      <path class="cls-2" d="M99.65,83.11c-.73-.81-2.51-1.96-2.39-2.83.22-1.49,1.38-3.67,2.59-4.03,5.29-1.56,10.75-2.57,16.15-3.78,5.29-1.18,10.59-2.28,15.85-3.55,2.44-.59,4.31,0,4.9,2.41.61,2.52-1.01,3.72-3.39,4.24-10.7,2.32-21.38,4.72-32.07,7.09-.34.07-.67.17-1.65.43Z"/>
      <path class="cls-2" d="M54.27,92.25c.16,3.58-2.09,5.08-5.01,4.06-7.5-2.64-14.95-5.4-22.42-8.11-2.49-.9-4.99-1.78-7.47-2.71-2.12-.79-3.35-2.27-2.52-4.55.85-2.32,2.84-2.55,4.89-1.81,9.97,3.58,19.94,7.17,29.86,10.9,1.21.45,2.11,1.74,2.66,2.22Z"/>
      <path class="cls-2" d="M125.6,61.17c.78.76,2.53,1.68,2.69,2.81.16,1.18-.99,3.48-1.96,3.72-9.16,2.29-18.39,4.34-27.67,6.15-.92.18-2.85-1.5-3.26-2.67-.7-2.01.58-3.53,2.73-4.01,6.3-1.4,12.61-2.77,18.91-4.15,2.59-.57,5.18-1.12,8.56-1.85Z"/>
      <path class="cls-2" d="M83.34,87.38c-4.68.07-8.46-3.52-8.56-8.14-.1-4.55,3.66-8.46,8.23-8.55,4.51-.09,8.48,3.7,8.61,8.22.12,4.5-3.69,8.4-8.28,8.47Z"/>
      <path class="cls-2" d="M53.74,107.58c-5.73-.71-11.46-1.45-17.2-2.12-2.41-.28-4.12-1.29-3.7-3.94.41-2.55,2.29-3.15,4.69-2.85,5.5.7,11.01,1.31,16.52,1.95.11.01.23.02.35.04,2.41.42,5.32.63,4.95,4-.35,3.31-3.01,3.3-5.62,2.92Z"/>
      <path class="cls-2" d="M27.44,113.7c2.63.13,6.25-.83,6.16,3.38-.09,4-3.59,3.35-6.3,3.41-1.03.02-2.32.37-3.05-.1-1.37-.88-3.16-2.12-3.42-3.46-.38-2,1.27-3.26,3.5-3.22,1.03.02,2.07,0,3.11,0Z"/>
    </g>
  </g>
</svg>