<?xml version="1.0" encoding="UTF-8"?>
<svg id="Layer_2" data-name="Layer 2" xmlns="http://www.w3.org/2000/svg" viewBox="0 0 172.61 216.39">
  <defs>
    <style>
      .cls-1 {
        fill: #000;
      }

      .cls-1, .cls-2 {
        stroke-width: 0px;
      }

      .cls-2 {
        fill: #fff;
      }
    </style>
  </defs>
  <g id="Layer_1-2" data-name="Layer 1">
    <g>
      <path class="cls-1" d="M171.95,98.81c-2.22,20.47-11.58,37.85-24.05,53.79-12.89,16.45-27.93,30.87-42.83,45.41-6.2,6.05-12.39,12.1-18.83,18.38-5.72-5.46-11.27-10.74-16.79-16.04-14.32-13.71-28.79-27.29-41.49-42.57-12.24-14.72-21.96-30.78-25.88-49.8C-5.61,70.61,8.34,35.68,37.91,15.07c30.98-21.6,73.51-19.95,102.94,4.76,24.49,20.55,34.54,47.27,31.1,78.99Z"/>
      <g>
        <path class="cls-2" d="M62.28,144.42c-.6-1.67-1.64-3.32-1.71-5.01-.22-5.55-.21-11.12-.04-16.67.14-4.53.62-9.05.98-13.85.04,0-.64-.11-1.33-.13-3.36-.1-4.31-1.43-3.34-4.7,1.37-4.61,2.43-5.54,7.09-5.54,1.64,0,2.31-.63,2.82-2.04,1.41-3.88,2.68-7.84,4.52-11.51.93-1.84,2.74-3.7,4.6-4.5,3.05-1.3,6.44-2.19,9.75-2.46,11.36-.91,22.74-1.24,34.06.77,5.15.91,8.74,3.42,10.11,8.8.73,2.89,2.27,5.57,3.09,8.44.59,2.05,1.65,2.54,3.63,2.49,4.22-.09,7.38,3.57,6.66,7.81-.16.92-1.5,1.88-2.51,2.34-.84.39-2.01.08-3.09.08,3.32,10.73,1.18,21.51,1.64,32.15.05,1.14-1.44,2.35-2.21,3.53h-11.32c-2.75-1.99-1.42-5.16-2.06-7.72h-46.72c-1.01,2.86-1.87,5.29-2.73,7.72h-11.89ZM70.63,101.9c19.91,3.9,38.84,4.04,58.34-.03-1.8-4.43-3.52-8.27-4.91-12.23-1.04-2.95-3.02-4.56-5.95-4.78-8.15-.59-16.3-1.27-24.46-1.38-4.37-.06-8.78.84-13.12,1.61-1.32.24-3.01,1.24-3.57,2.36-2.23,4.51-4.08,9.21-6.33,14.45ZM122.55,124.6c.01.11.02.21.04.32,2.31-.32,4.7-.39,6.92-1.04,2.34-.68,3.08-3.86,2-7.11-.81-2.44-2.77-2.52-4.59-1.82-3.58,1.38-7.08,2.99-10.49,4.75-.75.39-1.52,2.04-1.27,2.76.31.9,1.58,1.82,2.59,2.04,1.53.34,3.19.09,4.79.09ZM77.36,124.92c.01-.1.02-.2.04-.29,1.41,0,2.88.25,4.2-.08,1.12-.28,2.68-1.06,2.92-1.93.24-.86-.63-2.65-1.5-3.12-3.19-1.72-6.54-3.19-9.93-4.51-1.78-.7-3.81-.94-4.6,1.57-1.05,3.3-.22,6.76,1.97,7.36,2.22.61,4.59.69,6.89,1Z"/>
        <path class="cls-2" d="M39.21,99.2q-.76,7.95-8.55,7.95-7.43,0-7.43-7.55c0-3.68-.09-7.35.02-11.03.17-5.59-1.07-11.34,2.42-16.9-1.47-.08-2.35-.14-3.23-.18-2.7-.11-3.67-1.45-2.93-4.06,1.49-5.25,2.23-5.78,7.79-6.28.76-.07,1.78-.89,2.09-1.62,1.5-3.54,2.88-7.13,4.13-10.76,1.19-3.45,3.6-5.45,7.02-6.24,3.46-.79,6.98-1.93,10.47-1.93,10.05-.01,20.1.44,30.15.8,1.28.05,2.52.68,3.8.96,3.62.81,5.89,2.95,7.06,6.51,1.17,3.56,2.74,6.99,3.93,10.54.49,1.44,1.18,1.82,2.62,1.84,4.86.05,7.15,2.19,7.62,7.1.17,1.79-.47,3.05-2.63,3.15-6,.27-12.02.41-17.98,1.09-3.96.46-7.88,1.58-11.72,2.74-3.8,1.14-6.43,3.77-7.85,7.54-.46,1.23-1.03,2.42-1.47,3.65-1.22,3.47-2.12,7.07-6.79,7.65-1.19.15-2.7,1.39-3.23,2.53-1.18,2.48-3.03,2.6-5.29,2.52-3.28-.12-6.56-.03-10.01-.03ZM91.85,64.82c-1.87-4.61-3.64-8.52-5.05-12.56-1.01-2.9-3.05-4.12-5.79-4.62-11.78-2.15-23.59-1.9-35.38-.25-2,.28-4.77,1.16-5.6,2.65-2.52,4.5-4.26,9.44-6.55,14.77,19.77,3.8,38.62,3.86,58.37.01ZM41.21,87.78c1.05-.12,2.69-.11,4.2-.55.83-.24,1.87-1.14,2.02-1.9.16-.8-.38-2.29-1.04-2.62-3.67-1.84-7.36-3.76-11.26-4.98-2.84-.89-3.92.4-3.98,3.41-.11,5.16.33,5.68,5.57,6.34,1.31.16,2.63.18,4.5.3Z"/>
        <path class="cls-2" d="M112.18,72.33c-.85-3.62-1.37-6.91-2.42-10.02-1.17-3.43-3.84-5.4-7.4-6.31-.97-.25-2.08-1.17-2.51-2.08-1.09-2.26-1.82-4.69-2.83-7.39,10.69.03,21.07-.4,31.96-3.12-2.12-5.04-3.85-9.97-6.3-14.52-.78-1.44-3.41-2.31-5.33-2.62-11.7-1.88-23.44-1.83-35.17-.1-3.39.5-5.71,2.33-6.73,5.58-.93,2.94-2.66,4.03-5.64,3.01-.51-.18-1.1-.12-2.2-.23,1.63-3.54,2.72-7.1,4.75-10.02,2.34-3.36,6.53-4.05,10.3-4.55,11.44-1.51,22.94-1.5,34.39-.03,2.39.31,4.93.82,7,1.96,1.82,1.01,3.56,2.79,4.48,4.65,1.82,3.68,3.13,7.63,4.5,11.53.52,1.49,1.26,2.15,2.86,2,5.43-.5,6.32,2.63,7.31,6.72.58,2.36-.52,3.46-3.02,3.61-.83.05-1.67.08-2.54.12,3.22,10.55,1.05,21.24,1.69,31.78.11,1.86-.68,3.19-2.51,3.52-.67.12-1.99-.4-2.14-.89-3.24-10.32-11.94-11.4-20.71-12.4-.83-.09-1.65-.18-1.78-.19ZM122.34,66.31c1.22,0,2.44.05,3.66,0,4.87-.24,6.37-2.02,5.77-6.79-.31-2.48-1.94-3.96-4.25-3.13-3.85,1.39-7.56,3.19-11.2,5.07-.72.37-1.4,2.08-1.12,2.78.36.9,1.63,1.75,2.65,1.99,1.42.33,2.98.08,4.48.09Z"/>
      </g>
    </g>
  </g>
</svg>