<?xml version="1.0" encoding="UTF-8"?>
<svg id="Layer_2" data-name="Layer 2" xmlns="http://www.w3.org/2000/svg" viewBox="0 0 172.61 216.39">
  <defs>
    <style>
      .cls-1 {
        fill: #000;
      }

      .cls-1, .cls-2 {
        stroke-width: 0px;
      }

      .cls-2 {
        fill: #fff;
      }
    </style>
  </defs>
  <g id="Layer_1-2" data-name="Layer 1">
    <g>
      <path class="cls-1" d="M171.95,98.81c-2.22,20.47-11.58,37.85-24.05,53.79-12.89,16.45-27.93,30.87-42.83,45.41-6.2,6.05-12.39,12.1-18.83,18.38-5.72-5.46-11.27-10.74-16.79-16.04-14.32-13.71-28.79-27.29-41.49-42.57-12.24-14.72-21.96-30.78-25.88-49.8C-5.61,70.61,8.34,35.68,37.91,15.07c30.98-21.6,73.51-19.95,102.94,4.76,24.49,20.55,34.54,47.27,31.1,78.99Z"/>
      <g>
        <path class="cls-2" d="M145.04,69.81c-8.64-14.95-17.17-29.96-25.58-45.04-1.44-2.57-3.17-3.28-5.95-3.26-18.16.1-36.32.11-54.47-.01-2.87-.02-4.49.89-5.89,3.38-8.42,15.07-16.95,30.09-25.57,45.05-1.27,2.23-1.54,3.88-.22,6.31,8.76,16.21,17.38,32.5,25.87,48.85,1.38,2.66,3.1,3.33,5.88,3.29,8.99-.14,17.99-.05,26.99-.05,9.16-.01,18.32-.12,27.48.06,2.91.06,4.5-.94,5.82-3.47,8.48-16.18,17.02-32.32,25.72-48.38,1.36-2.5,1.33-4.29-.08-6.73ZM138.32,75.96c-7.41,14.27-14.95,28.48-22.74,42.56-.86,1.56-3.45,2.96-5.29,3.04-7.98.33-15.97.14-23.96.14s-15.98-.11-23.96.06c-2.81.05-4.41-.71-5.72-3.4-6.82-13.99-13.98-27.81-20.76-41.82-.82-1.7-.85-4.53,0-6.18,6.9-13.24,14.03-26.36,21.34-39.37.82-1.48,3.2-2.92,4.88-2.94,16.14-.22,32.29-.22,48.43,0,1.68.02,4.03,1.47,4.91,2.95,7.79,13.12,15.38,26.37,22.82,39.69.76,1.37.77,3.86.04,5.27Z"/>
        <path class="cls-2" d="M79.79,135.82h12.88c.13.86.36,1.62.36,2.38.02,12.1.04,24.19,0,36.29-.01,3.82-2.42,5.22-8.48,4.44-1.83-.23-4.54-1.78-4.56-2.74-.3-13.37-.2-26.74-.2-40.37Z"/>
        <path class="cls-2" d="M129.46,70.23c-5.46-10.63-11.17-21.13-17.11-31.5-.92-1.59-3.42-3.08-5.27-3.18-6.8-.38-13.64-.15-20.47-.15s-13.66.11-20.48-.06c-2.84-.07-4.5.81-5.86,3.4-5.61,10.73-11.54,21.3-17.11,32.05-.74,1.42-.71,3.9.04,5.32,6.24,11.91,12.65,23.73,19.27,35.43.83,1.48,3.13,2.98,4.78,3.01,12.81.25,25.64.25,38.46,0,1.66-.03,3.99-1.53,4.82-3.02,6.5-11.57,12.82-23.26,18.9-35.06.86-1.68.89-4.57.03-6.24ZM92.78,103.44h-15.18v-13.39h15.18v13.39ZM105.16,69.57c-1.17,1.97-3.56,4.37-7.16,7.2-2.51,1.99-4.1,3.59-4.76,4.79-.66,1.21-.99,2.78-.99,4.72h-14.17v-1.42c0-2.41.28-4.36.82-5.87.55-1.5,1.36-2.88,2.45-4.12,1.08-1.24,3.51-3.43,7.29-6.56,2.01-1.64,3.02-3.15,3.02-4.52s-.41-2.43-1.21-3.18c-.81-.76-2.04-1.14-3.68-1.14-1.76,0-3.22.58-4.38,1.75-1.16,1.17-1.9,3.21-2.22,6.12l-14.47-1.79c.5-5.32,2.43-9.61,5.8-12.85,3.37-3.25,8.54-4.87,15.5-4.87,5.42,0,9.79,1.13,13.12,3.4,4.53,3.05,6.79,7.13,6.79,12.23,0,2.11-.58,4.15-1.75,6.11Z"/>
      </g>
    </g>
  </g>
</svg>