<?xml version="1.0" encoding="UTF-8"?>
<svg id="Layer_2" data-name="Layer 2" xmlns="http://www.w3.org/2000/svg" viewBox="0 0 172.61 216.39">
  <defs>
    <style>
      .cls-1 {
        fill: #fff;
        fill-rule: evenodd;
      }

      .cls-1, .cls-2 {
        stroke-width: 0px;
      }

      .cls-2 {
        fill: #000;
      }
    </style>
  </defs>
  <g id="Layer_1-2" data-name="Layer 1">
    <g>
      <path class="cls-2" d="M171.95,98.81c-2.22,20.47-11.58,37.85-24.05,53.79-12.89,16.45-27.93,30.87-42.83,45.41-6.2,6.05-12.39,12.1-18.83,18.38-5.72-5.46-11.27-10.74-16.79-16.04-14.32-13.71-28.79-27.29-41.49-42.57-12.24-14.72-21.96-30.78-25.88-49.8C-5.61,70.61,8.34,35.68,37.91,15.07c30.98-21.6,73.51-19.95,102.94,4.76,24.49,20.55,34.54,47.27,31.1,78.99Z"/>
      <path class="cls-1" d="M69.68,28.79c-9.18,0-16.63,7.44-16.63,16.62h-16.62c1.39,4.16,6.65,13.3,16.62,16.62v16.62h-16.62c1.39,4.16,6.65,13.3,16.62,16.62v16.62h-16.62c1.39,4.16,6.65,13.3,16.62,16.62v8.31c0,9.18,7.44,16.62,16.63,16.62h33.25c9.18,0,16.62-7.44,16.62-16.62v-8.31c9.97-3.32,15.24-12.47,16.62-16.62h-16.62v-16.62c9.97-3.33,15.24-12.47,16.62-16.62h-16.62v-16.62c9.97-3.33,15.24-12.47,16.62-16.62h-16.62c0-9.18-7.44-16.62-16.62-16.62h-33.25ZM98.77,57.88c0,6.89-5.58,12.47-12.47,12.47s-12.47-5.58-12.47-12.47,5.58-12.47,12.47-12.47,12.47,5.58,12.47,12.47M98.77,91.13c0,6.89-5.58,12.47-12.47,12.47s-12.47-5.58-12.47-12.47,5.58-12.47,12.47-12.47,12.47,5.58,12.47,12.47M86.3,136.85c-6.89,0-12.47-5.58-12.47-12.47s5.58-12.47,12.47-12.47,12.47,5.58,12.47,12.47-5.58,12.47-12.47,12.47"/>
    </g>
  </g>
</svg>