<?xml version="1.0" encoding="UTF-8"?>
<svg id="Layer_2" data-name="Layer 2" xmlns="http://www.w3.org/2000/svg" viewBox="0 0 172.61 216.39">
  <defs>
    <style>
      .cls-1 {
        fill: #000;
      }

      .cls-1, .cls-2 {
        stroke-width: 0px;
      }

      .cls-2 {
        fill: #fff;
      }
    </style>
  </defs>
  <g id="Layer_1-2" data-name="Layer 1">
    <g>
      <path class="cls-1" d="M171.95,98.81c-2.22,20.47-11.58,37.85-24.05,53.79-12.89,16.45-27.93,30.87-42.83,45.41-6.2,6.05-12.39,12.1-18.83,18.38-5.72-5.46-11.27-10.74-16.79-16.04-14.32-13.71-28.79-27.29-41.49-42.57-12.24-14.72-21.96-30.78-25.88-49.8C-5.61,70.61,8.34,35.68,37.91,15.07c30.98-21.6,73.51-19.95,102.94,4.76,24.49,20.55,34.54,47.27,31.1,78.99Z"/>
      <g>
        <path class="cls-2" d="M99.57,74.95c-1.68-1.11-2.93-1.89-4.12-2.75-2.91-2.1-4.69-4.83-4.63-8.57.08-4.85,4.57-7.72,9.07-5.87.9.37,2.16.43,3.06.1,2.46-.89,4.57,0,6.92.47,1.98.39,4.07-1.8,6.58-.82,3.62,1.42,5.45,5.08,3.81,9.16-.79,1.96-2.4,3.66-3.89,5.24-1.09,1.15-2.59,1.89-4.1,2.95,2.44.91,4.65,1.56,6.7,2.54,12.21,5.86,18.72,15.52,19.05,29.16.1,4.22.03,8.45.01,12.67-.01,2.61.77,4.86,2.76,6.64.92.83,1.77,1.74,2.62,2.65,3.44,3.68,4.39,7.89,2.42,12.58-1.92,4.56-5.71,6.73-10.4,6.76-19.71.13-39.42.12-59.13.01-4.93-.03-8.9-2.32-10.66-7.11-1.74-4.72-.95-9.26,3.04-12.61,3.67-3.09,5.1-6.71,4.9-11.52-.22-5.51-.41-11.21.72-16.55,2.7-12.72,10.85-20.8,23.3-24.53.46-.14.91-.27,1.97-.59Z"/>
        <path class="cls-2" d="M30.55,57.26h56.89c-.37,2.77-1.3,5.63-.96,8.35.34,2.74,1.92,5.33,3.04,8.17-5.44,2.81-10.32,6.8-14,12.14-4.29,6.23-6.47,13.14-6.59,20.69-.06,3.73-.17,7.46.04,11.18.15,2.63-.73,4.45-2.57,6.31-1.94,1.95-3.78,4.25-4.87,6.75-2.23,5.11-1.46,10.16,1.66,14.82.44.66.91,1.3,1.55,2.2-7.17,0-14.03.31-20.85-.09-5.89-.35-9.5-4.95-9.75-10.88-.7-16.13-1.54-32.25-2.28-48.37-.47-10.33-.85-20.66-1.29-31.26Z"/>
        <path class="cls-2" d="M51.62,39.84c.11-1.11.21-2,.29-2.89.52-5.82,4.75-9.98,10.58-10.08,7.2-.12,14.41-.12,21.62,0,6.08.09,10.42,4.47,10.67,10.49.03.72.11,1.45.19,2.5,5.4,0,10.67,0,15.95,0,2.24,0,4.47.03,6.71-.03,2.15-.06,3.26.8,3.19,3.06-.07,2.23-.07,4.47,0,6.71.07,2.2-.81,3.11-3.09,3.07-6.29-.1-12.59-.03-18.88-.03-23.03,0-46.05,0-69.08,0-3.74,0-3.98-.24-3.98-3.92,0-1.82-.02-3.64,0-5.47.03-2.68.69-3.39,3.37-3.4,6.54-.02,13.09,0,19.63,0,.9,0,1.8,0,2.84,0ZM90.6,39.72c.59-5.53-2.06-8.57-7.19-8.58-6.78,0-13.57,0-20.35,0-5.03,0-7.81,3.5-6.72,8.58h34.26Z"/>
      </g>
    </g>
  </g>
</svg>