<?xml version="1.0" encoding="UTF-8"?>
<svg id="Layer_2" data-name="Layer 2" xmlns="http://www.w3.org/2000/svg" viewBox="0 0 172.61 216.39">
  <defs>
    <style>
      .cls-1 {
        fill: #000;
      }

      .cls-1, .cls-2 {
        stroke-width: 0px;
      }

      .cls-2 {
        fill: #fff;
      }
    </style>
  </defs>
  <g id="Layer_1-2" data-name="Layer 1">
    <g>
      <path class="cls-1" d="M171.95,98.81c-2.22,20.47-11.58,37.85-24.05,53.79-12.89,16.45-27.93,30.87-42.83,45.41-6.2,6.05-12.39,12.1-18.83,18.38-5.72-5.46-11.27-10.74-16.79-16.04-14.32-13.71-28.79-27.29-41.49-42.57-12.24-14.72-21.96-30.78-25.88-49.8C-5.61,70.61,8.34,35.68,37.91,15.07c30.98-21.6,73.51-19.95,102.94,4.76,24.49,20.55,34.54,47.27,31.1,78.99Z"/>
      <path class="cls-2" d="M16.15,63.3c0-2.38,0-4.75,0-7.13.14-.22.39-.43.42-.67,2.1-14.67,16.17-26.15,33.04-23.35.81.13,2.04-.46,2.62-1.12,3.27-3.75,7.31-5.43,12.17-4.5,2.18.42,3.93.1,5.91-.85,8.06-3.89,18.49-1.75,24.32,4.8,6.48,7.28,7.43,17.59,2.42,25.58-2.5,3.99-6.08,6.67-10.41,8.82,2.13,4.17,4.11,8.26,6.31,12.22.59,1.07,1.75,2.13,2.88,2.54,15.11,5.57,30.26,11,45.38,16.54,1.64.6,2.82.52,4.2-.66,2.91-2.49,6-4.77,9.01-7.13-2.26,4-5.02,7.49-7.59,11.11-.74,1.04-1.22,2.41-1.36,3.68-.46,4.39-.72,8.8-1.1,13.8-.85-1.17-1.33-1.8-1.79-2.45-1.37-1.9-5.24-1.91-6.37.16-2.11,3.89-4,7.89-6.15,12.18h26.39v9.87c-.91.05-1.82.14-2.73.14-31.42,0-62.84,0-94.26,0-.87,0-1.73-.11-2.53-.16v-9.93h71.57c.4-4.72.65-9.27,1.22-13.77.25-1.94-.45-2.73-2.04-3.51-11.05-5.42-22.15-10.74-33.02-16.49-3.81-2.01-7.09-2.31-11-.66-4.3,1.82-8.81,3.15-12.79,4.54.41,2.92,1.29,5.46,1.02,7.88-.68,6.02-4.3,10.12-9.81,12.47-5.47,2.34-10.64,1.81-15.45-1.89-.78-.6-1.93-1.01-2.91-1.03-18.4-.4-29.6-18.17-22.13-35.09.32-.72.53-1.93.16-2.45-2.94-4.08-4.48-8.69-5.61-13.5ZM68.84,90.59c3.21-1.77,6.73-3.71,10.62-5.86-3.89-3.54-7.49-6.8-11.12-10.09-.37.51-1.09,1.33-1.61,2.27-.44.79-1.05,1.8-.88,2.55.85,3.68,1.93,7.3,2.98,11.13ZM72.08,65.18c-.33,1.06-.83,2.07-.9,3.12-.05.71.31,1.84.84,2.12,3.34,1.74,6.78,3.29,10.63,5.11-.67-3.48-1.24-6.45-1.76-9.15-3.11-.42-5.8-.79-8.8-1.2Z"/>
    </g>
  </g>
</svg>